<svg xmlns="http://www.w3.org/2000/svg" viewBox="0 0 80 80"><path fill="#bae0bd" d="M2.5 34.5H77.5V77.5H2.5z"></path><path fill="#5e9c76" d="M77,35v42H3V35H77 M78,34H2v44h76V34L78,34z"></path><path fill="#fff" d="M40,71.5c-8.5,0-15.5-7-15.5-15.5s7-15.5,15.5-15.5s15.5,7,15.5,15.5S48.5,71.5,40,71.5z"></path><path fill="#5e9c76" d="M40,41c8.3,0,15,6.7,15,15s-6.7,15-15,15s-15-6.7-15-15S31.7,41,40,41 M40,40c-8.8,0-16,7.2-16,16 s7.2,16,16,16s16-7.2,16-16S48.8,40,40,40L40,40z"></path><path fill="#8bb7f0" d="M54 5.3L65.3 2.7 62.7 14z"></path><path fill="#4e7ab5" d="M64.7,3.3L62.4,13L55,5.6L64.7,3.3 M66,2L53,5l10,10L66,2L66,2z"></path><path fill="#4e7ab5" d="M15.4 32L14 30.6 32 13 43 23.2 57.6 9 58.9 10.5 43 26 32 15.8z"></path><g><path fill="#fff" d="M66 50.5A5.5 5.5 0 1 0 66 61.5A5.5 5.5 0 1 0 66 50.5Z"></path><path fill="#5e9c76" d="M66,51c2.8,0,5,2.2,5,5s-2.2,5-5,5s-5-2.2-5-5S63.2,51,66,51 M66,50c-3.3,0-6,2.7-6,6s2.7,6,6,6 c3.3,0,6-2.7,6-6S69.3,50,66,50L66,50z"></path></g><g><path fill="#fff" d="M14 50.5A5.5 5.5 0 1 0 14 61.5A5.5 5.5 0 1 0 14 50.5Z"></path><path fill="#5e9c76" d="M14,51c2.8,0,5,2.2,5,5s-2.2,5-5,5s-5-2.2-5-5S11.2,51,14,51 M14,50c-3.3,0-6,2.7-6,6s2.7,6,6,6 s6-2.7,6-6S17.3,50,14,50L14,50z"></path></g></svg>