<svg id="Layer_1" enable-background="new 0 0 512 512" height="512" viewBox="0 0 512 512" width="512" xmlns="http://www.w3.org/2000/svg"><path d="m325.55 199.43c-.1.098.314-.414-32.55 42.57h-40l-39-99-32.17 134.22-61.83-152.22h-112v379h496c0-10.91 0-377.061 0-387.5 0 92.675-108.7 141.862-178.45 82.93z" fill="#d1e7ff"/><path d="m504 116.5c0 59.925-48.572 108.497-108.497 108.497s-108.497-48.572-108.497-108.497c0-59.981 48.642-108.497 108.497-108.497 59.828 0 108.497 48.489 108.497 108.497z" fill="#a2d0ff"/><circle cx="395.503" cy="116.5" fill="#d1e7ff" r="74.235"/><path d="m504 116.5c0 84.107-91.556 135.632-163.157 93.742 14.39-5.082 27.935-12.129 40.247-20.911 72.775 14.448 118.838-75.67 65.738-126.451.034-17.04-2.558-32.412-5.767-44.872 39.409 18.541 62.939 56.983 62.939 98.492z" fill="#8bc4ff"/><path d="m469.738 116.5c0 46.842-42.89 81.914-88.648 72.83 40.1-28.596 65.604-74.315 65.738-126.451 14.116 13.5 22.91 32.538 22.91 53.621z" fill="#b9dcff"/><path d="m381.758 43.544c-44.628 8.348-71.561 54.885-56.19 97.91-10.633 6.91-21.38 11.626-31.03 14.87-25.424-64.407 15.541-136.666 84.696-147.11 1.862 9.502 3.186 21.276 2.524 34.33z" fill="#b9dcff"/><path d="m381.758 43.544c-2.111 41.244-23.611 76.796-56.19 97.91-15.4-43.107 11.637-89.575 56.19-97.91z" fill="#e8f3ff"/><g fill="#2e58ff"><path d="m370.288 141.51h-1.977c-4.418 0-8 3.582-8 8s3.582 8 8 8h6.965v4.471c0 4.418 3.582 8 8 8s8-3.582 8-8v-4.471h6.448v4.471c0 4.418 3.582 8 8 8s8-3.582 8-8v-6.177c15.474-6.208 20.008-26.033 8.566-38.304 11.451-12.279 6.895-32.1-8.566-38.304v-6.176c0-4.418-3.582-8-8-8s-8 3.582-8 8v4.471h-6.448v-4.471c0-4.418-3.582-8-8-8s-8 3.582-8 8v4.471h-6.965c-4.418 0-8 3.582-8 8s3.582 8 8 8h1.977zm34.605-48.02c4.299 0 7.797 3.498 7.797 7.797s-3.498 7.797-7.797 7.797h-18.605v-15.594zm0 48.02h-18.605v-15.594h18.605c4.299 0 7.797 3.498 7.797 7.797s-3.498 7.797-7.797 7.797z"/><path d="m504 496h-488v-273h50.584l75.988 189.971c2.887 7.22 13.392 6.463 15.208-1.105l26.015-108.534 7.616 18.751c1.262 3.107 4.255 4.991 7.415 4.991 5.653 0 9.548-5.746 7.409-11.013l-16.031-39.47 25.657-107.039 29.695 75.38c1.205 3.058 4.157 5.068 7.444 5.068h40c2.492 0 4.842-1.161 6.355-3.141l12.998-17c2.684-3.51 2.014-8.531-1.496-11.215-3.512-2.683-8.531-2.015-11.214 1.496l-10.597 13.86h-30.6l-37.003-93.933c-2.852-7.235-13.402-6.531-15.223 1.067l-26.363 109.982-52.446-129.127c-1.224-3.016-4.155-4.989-7.411-4.989h-104v-109c0-4.418-3.582-8-8-8s-8 3.582-8 8v496c0 4.418 3.582 8 8 8h496c4.418 0 8-3.582 8-8s-3.582-8-8-8zm-389.385-363 58.833 144.856-25.364 105.815-68.656-171.642c-1.215-3.038-4.157-5.029-7.428-5.029h-56v-74z"/><path d="m395.5 233c64.238 0 116.5-52.262 116.5-116.5s-52.262-116.5-116.5-116.5-116.5 52.262-116.5 116.5 52.262 116.5 116.5 116.5zm0-217c55.416 0 100.5 45.084 100.5 100.5s-45.084 100.5-100.5 100.5-100.5-45.084-100.5-100.5 45.084-100.5 100.5-100.5z"/><path d="m395.5 199c45.491 0 82.5-37.01 82.5-82.5s-37.009-82.5-82.5-82.5-82.5 37.01-82.5 82.5 37.009 82.5 82.5 82.5zm0-149c36.668 0 66.5 29.832 66.5 66.5s-29.832 66.5-66.5 66.5-66.5-29.832-66.5-66.5 29.832-66.5 66.5-66.5z"/><path d="m244.588 453.011c2.706 6.662 12.209 6.636 14.855-.078l50.004-126.933h33.553c2.711 0 5.238-1.373 6.713-3.648l32.635-50.352h65.338l50.657 50.657c3.124 3.123 8.189 3.123 11.313 0 3.125-3.125 3.125-8.189 0-11.314l-53-53c-1.5-1.5-3.535-2.343-5.657-2.343h-73c-2.711 0-5.238 1.373-6.713 3.648l-32.634 50.352h-34.652c-3.287 0-6.239 2.01-7.443 5.067l-44.67 113.394-23.058-56.771c-1.663-4.093-6.328-6.063-10.422-4.401-4.094 1.663-6.064 6.329-4.402 10.423z"/><path d="m218.944 347.353c-4.125-10.187-18.948-4.164-14.83 6.006 1.659 4.096 6.324 6.07 10.418 4.412 4.095-1.659 6.07-6.323 4.412-10.418z"/></g></svg>