<svg height="368pt" viewBox="0 0 368 368" width="368pt" xmlns="http://www.w3.org/2000/svg"><path d="m296 184c0-61.839844-50.160156-112-112-112-17.121094 0-33.441406 3.839844-48 10.800781-37.839844 18-64 56.558594-64 101.199219 0 61.839844 50.160156 112 112 112 17.121094 0 33.441406-3.839844 48-10.800781 37.839844-18 64-56.558594 64-101.199219zm-112 48c-26.480469 0-48-21.519531-48-48s21.519531-48 48-48 48 21.519531 48 48-21.519531 48-48 48zm0 0" fill="#cce4ff"/><g fill="#007aff"><path d="m184 0c-101.464844 0-184 82.542969-184 184s82.535156 184 184 184 184-82.542969 184-184-82.535156-184-184-184zm0 352c-92.632812 0-168-75.359375-168-168s75.367188-168 168-168 168 75.359375 168 168-75.367188 168-168 168zm0 0"/><path d="m184 64c-17.921875 0-35.078125 3.855469-51.039062 11.414062-.050782.019532-.089844.042969-.136719.058594-.089844.039063-.175781.0625-.265625.101563-41.648438 19.808593-68.558594 62.371093-68.558594 108.425781 0 66.167969 53.832031 120 120 120 17.910156 0 35.089844-3.855469 51.054688-11.414062.042968-.019532.074218-.035157.113281-.050782.089843-.039062.191406-.070312.28125-.109375 41.640625-19.816406 68.550781-62.378906 68.550781-108.425781 0-66.167969-53.832031-120-120-120zm-104 120c0-35.503906 18.488281-68.585938 48-87.550781v87.550781c0 30.878906 25.128906 56 56 56 15.664062 0 29.824219-6.480469 40-16.886719v56.734375c-12.625 5.3125-26.015625 8.152344-40 8.152344-57.34375 0-104-46.65625-104-104zm64 0c0-22.054688 17.945312-40 40-40s40 17.945312 40 40-17.945312 40-40 40-40-17.945312-40-40zm96 87.558594v-87.558594c0-30.878906-25.128906-56-56-56-15.664062 0-29.824219 6.480469-40 16.886719v-56.734375c12.625-5.3125 26.015625-8.152344 40-8.152344 57.34375 0 104 46.65625 104 104 0 35.511719-18.496094 68.59375-48 87.558594zm0 0"/></g></svg>