<svg id="Layer_1" enable-background="new 0 0 512.037 512.037" height="512" viewBox="0 0 512.037 512.037" width="512" xmlns="http://www.w3.org/2000/svg"><path d="m504.023 159.01c0 83.395-67.597 150.992-150.992 150.992s-150.992-67.597-150.992-150.992c0-83.474 67.694-150.992 150.992-150.992 83.261.001 150.992 67.481 150.992 150.992z" fill="#a2d0ff"/><circle cx="353.032" cy="159.01" fill="#d1e7ff" r="103.31"/><path d="m504.023 159.01c0 117.049-127.415 188.754-227.06 130.457 20.026-7.073 38.876-16.879 56.01-29.102 63.835 12.673 123.368-36.304 123.368-101.355 0-29.34-12.238-55.835-31.883-74.622.048-23.714-3.56-45.107-8.026-62.447 54.684 25.728 87.591 79.121 87.591 137.069z" fill="#8bc4ff"/><path d="m456.342 159.01c0 65.188-59.689 113.997-123.368 101.355 55.806-39.796 91.299-103.422 91.485-175.977 19.644 18.787 31.883 45.282 31.883 74.622z" fill="#b9dcff"/><path d="m333.903 58.919c-62.071 11.611-99.61 76.322-78.198 136.258-14.797 9.616-29.753 16.18-43.184 20.694-35.176-89.114 21.079-190.111 117.87-204.729 2.59 13.223 4.434 29.61 3.512 47.777z" fill="#b9dcff"/><path d="m333.903 57.48c-2.946 57.546-32.939 106.926-78.198 136.258-21.434-59.998 16.202-124.66 78.198-136.258z" fill="#e8f3ff"/><path d="m353 92.019 30.79 52.46-30.79 20.52-30.79-20.52z" fill="#8bc4ff"/><path d="m480.553 353.019c0 83.395-67.597 150.992-150.992 150.992s-150.992-67.597-150.992-150.992c0-83.474 67.694-150.992 150.992-150.992 83.261 0 150.992 67.48 150.992 150.992z" fill="#a2d0ff"/><circle cx="329.562" cy="353.019" fill="#d1e7ff" r="103.31"/><path d="m480.553 353.019c0 117.049-127.415 188.754-227.06 130.457 20.026-7.073 38.876-16.879 56.01-29.102 63.835 12.673 123.368-36.304 123.368-101.355 0-29.34-12.238-55.835-31.883-74.622.048-23.714-3.56-45.107-8.026-62.447 54.684 25.727 87.591 79.12 87.591 137.069z" fill="#8bc4ff"/><path d="m432.872 353.019c0 65.188-59.689 113.997-123.368 101.355 55.806-39.796 91.299-103.422 91.485-175.977 19.644 18.786 31.883 45.281 31.883 74.622z" fill="#b9dcff"/><path d="m310 250.019c0 83.395-67.597 150.992-150.992 150.992s-150.992-67.597-150.992-150.992c0-83.474 67.694-150.992 150.992-150.992 83.261 0 150.992 67.48 150.992 150.992z" fill="#a2d0ff"/><circle cx="159.008" cy="250.019" fill="#d1e7ff" r="103.31"/><path d="m310 250.019c0 117.049-127.415 188.754-227.06 130.457 20.026-7.073 38.876-16.879 56.01-29.102 63.835 12.673 123.368-36.304 123.368-101.355 0-29.34-12.238-55.835-31.883-74.622.048-23.714-3.56-45.107-8.026-62.447 54.684 25.727 87.591 79.12 87.591 137.069z" fill="#8bc4ff"/><path d="m262.318 250.019c0 65.188-59.689 113.997-123.368 101.355 55.806-39.796 91.299-103.422 91.485-175.977 19.645 18.786 31.883 45.281 31.883 74.622z" fill="#b9dcff"/><path d="m139.88 149.927c-62.071 11.611-99.61 76.322-78.198 136.258-14.797 9.616-29.753 16.18-43.184 20.694-35.177-89.113 21.078-190.11 117.869-204.729 2.591 13.224 4.435 29.61 3.513 47.777z" fill="#b9dcff"/><path d="m139.88 148.488c-2.946 57.546-32.939 106.926-78.198 136.258-21.434-59.997 16.202-124.66 78.198-136.258z" fill="#e8f3ff"/><g fill="#2e58ff"><path d="m94.32 113.307c-5.115-9.47-20.523-1.038-15.324 8.371 5.19 9.393 20.345.93 15.324-8.371z"/><path d="m159 154.708c36.718 0 70.572 21.467 86.248 54.691 1.885 3.997 6.651 5.708 10.649 3.821 3.995-1.885 5.706-6.653 3.821-10.648-18.305-38.796-57.84-63.864-100.719-63.864-86.499 0-138.831 94.702-96.758 166.359 19.814 34.783 56.591 56.261 96.758 56.261 61.614 0 111.311-49.969 111.311-111.31 0-4.418-3.582-8-8-8s-8 3.582-8 8c0 14.947-3.54 29.768-10.237 43h-21.823v-86c0-6.637-7.658-10.4-12.913-6.313l-50.337 39.176-50.337-39.176c-5.246-4.084-12.913-.332-12.913 6.313v86h-21.824c-31.87-62.979 13.964-138.31 85.074-138.31zm-55.25 154.311c4.418 0 8-3.582 8-8v-77.636l42.337 32.95c2.889 2.249 6.938 2.249 9.826 0l42.337-32.95v77.636c0 4.418 3.582 8 8 8h19.615c-38.09 48.363-111.588 48.429-149.731 0z"/><path d="m433.163 232.886c-16.818-14.592-36.075-25.294-56.845-31.736l14.153-21.48c2.431-3.689 1.41-8.651-2.279-11.082-3.689-2.433-8.651-1.411-11.082 2.279l-17.22 26.137c-5.017-.981-10.104-1.721-15.249-2.221l-15.749-23.914c-2.431-3.69-7.392-4.712-11.082-2.281-3.689 2.43-4.711 7.391-2.281 11.081l9.486 14.405c-5.579.139-11.156.563-16.675 1.278-9.256-25.199-25.057-48.006-45.428-65.655 12.486-38.956 49.381-65.997 90.465-65.997 68.023 0 113.787 69.616 87.595 131.834-2.22 5.272 1.666 11.106 7.369 11.106 3.123 0 6.09-1.839 7.377-4.898 5.743-13.641 8.655-28.124 8.655-43.046 0-92.119-105.786-143.224-177.976-88.514-16.591 12.574-29.451 29.824-36.819 49.172-8.946-6.217-18.473-11.469-28.44-15.704 22.157-52.715 74.191-87.631 131.862-87.631 114.733 0 181.419 128.275 119.244 221.961-2.442 3.682-1.439 8.646 2.242 11.089 3.673 2.437 8.64 1.449 11.09-2.242 69.178-104.245-5.062-246.808-132.576-246.808-64.365 0-122.431 39.108-146.908 98.095-30.515-9.448-63.458-9.44-93.824-.114-4.224 1.297-6.596 5.772-5.299 9.996s5.774 6.594 9.996 5.299c91.249-28.021 183.025 39.469 184.997 133.656 2.235 80.2-62.972 146.068-142.963 146.068-78.851 0-143-64.149-143-143 0-39.802 16.789-78.118 46.062-105.125 3.247-2.996 3.451-8.057.455-11.305s-8.057-3.45-11.305-.455c-32.545 30.027-51.211 72.63-51.211 116.885 0 87.673 71.327 159 159 159 84.534 0 154.32-66.148 158.754-150.584 57.729-7.017 107.118 38.248 107.118 94.726 0 52.632-42.819 95.451-95.452 95.451-29.582 0-57.011-13.389-75.253-36.734-2.721-3.48-7.749-4.1-11.229-1.378-3.481 2.72-4.099 7.748-1.378 11.229 21.295 27.252 53.319 42.882 87.86 42.882 61.455 0 111.452-49.997 111.452-111.451 0-65.405-56.625-117.717-123.078-110.824-.504-10.642-2.071-21.168-4.671-31.441 53.703-5.922 105.719 18.448 135.433 63.64 61.569 93.595-4.947 221.484-119.556 221.484-46.995 0-91.018-23.122-117.76-61.852-2.511-3.636-7.492-4.549-11.129-2.038-3.636 2.51-4.548 7.493-2.037 11.128 29.729 43.056 78.673 68.761 130.926 68.761 145.53.001 215.807-182.201 104.163-279.132z"/><path d="m300.39 414.019h66.61c4.418 0 8-3.582 8-8s-3.582-8-8-8h-55.46l15.271-45.173 26.694-5.608c4.324-.909 7.092-5.151 6.184-9.475s-5.15-7.092-9.475-6.184l-17.454 3.667 13.058-38.626c1.414-4.186-.832-8.726-5.018-10.141-4.189-1.414-8.726.832-10.141 5.018l-16.082 47.568-14.963 3.144c-4.323.908-7.094 5.149-6.186 9.473.791 3.77 4.116 6.358 7.821 6.358 1.086 0 1.143-.065 7.378-1.375l-15.818 46.791c-1.75 5.18 2.108 10.563 7.581 10.563z"/><path d="m346.101 87.969-30.79 52.46c-2.146 3.657-1.066 8.354 2.463 10.707l30.79 20.52c2.683 1.787 6.18 1.794 8.873 0l30.79-20.52c3.529-2.352 4.609-7.049 2.463-10.707l-30.79-52.46c-3.089-5.261-10.711-5.261-13.799 0zm6.899 67.416-20.066-13.373 20.066-34.189 20.066 34.188z"/></g></svg>