<svg xmlns="http://www.w3.org/2000/svg" viewBox="0 0 80 80"><path fill="#b0c1d4" d="M2.5 74.5L2.5 63.056 13.256 15.5 66.744 15.5 77.5 63.056 77.5 74.5z"></path><path fill="#66798f" d="M66.344,16L77,63.112V74H3V63.112L13.656,16H66.344 M67.143,15H12.857L2,63v12h76V63L67.143,15 L67.143,15z"></path><path fill="#66798f" d="M40,8c1.654,0,3,1.346,3,3s-1.346,3-3,3s-3-1.346-3-3S38.346,8,40,8 M40,6c-2.761,0-5,2.239-5,5 s2.239,5,5,5s5-2.239,5-5S42.761,6,40,6L40,6z"></path><path fill="#a3b3c4" d="M3 63H77V74H3z"></path><path fill="#fff" d="M35.544,33.719c0-1.667,1.494-3.104,4.568-3.104c3.48,0,5.985,0.986,7.932,2.167v-5.625	c-1.447-0.806-3.633-1.278-6.564-1.417v-3.792h-3.042v3.875c-2.542,0.25-4.583,1.143-6.125,2.678C30.772,30.035,30,31.892,30,34.073	c0,8.616,14.461,8.883,14.461,13.604c0,1.681-2.106,2.979-4.454,2.979c-4.807,0-8.638-2.035-9.444-2.688v5.771	c2.431,1.264,5.056,1.903,7.875,1.917v4.396h3.042v-4.521c2.736-0.306,4.839-1.162,6.314-2.572C49.264,51.549,50,49.691,50,47.385	C50,38.187,35.544,38.889,35.544,33.719z"></path></svg>