<svg height="409.6pt" viewBox="0 0 409.6 409.6" width="409.6pt" xmlns="http://www.w3.org/2000/svg"><path d="m402.773438 204.800781c0 109.335938-88.636719 197.972657-197.972657 197.972657-109.339843 0-197.972656-88.636719-197.972656-197.972657 0-109.339843 88.632813-197.972656 197.972656-197.972656 109.335938 0 197.972657 88.632813 197.972657 197.972656zm0 0" fill="#2a8ee6"/><path d="m204.800781 409.601562c-112.925781 0-204.800781-91.875-204.800781-204.800781s91.875-204.800781 204.800781-204.800781 204.800781 91.875 204.800781 204.800781-91.875 204.800781-204.800781 204.800781zm0-395.949218c-105.402343 0-191.148437 85.746094-191.148437 191.148437 0 105.398438 85.746094 191.144531 191.148437 191.144531 105.398438 0 191.144531-85.746093 191.144531-191.144531 0-105.402343-85.746093-191.148437-191.144531-191.148437zm0 0" fill="#0e65e5"/><path d="m382.292969 204.800781c0 98.027344-79.464844 177.492188-177.492188 177.492188-98.027343 0-177.492187-79.464844-177.492187-177.492188 0-98.027343 79.464844-177.492187 177.492187-177.492187 98.027344 0 177.492188 79.464844 177.492188 177.492187zm0 0" fill="#d7e9ff"/><path d="m204.800781 389.121094c-101.632812 0-184.320312-82.6875-184.320312-184.320313 0-101.632812 82.6875-184.320312 184.320312-184.320312 101.632813 0 184.320313 82.6875 184.320313 184.320312 0 101.632813-82.6875 184.320313-184.320313 184.320313zm0-354.988282c-94.109375 0-170.667969 76.558594-170.667969 170.667969 0 94.105469 76.558594 170.664063 170.667969 170.664063 94.105469 0 170.664063-76.558594 170.664063-170.664063 0-94.109375-76.558594-170.667969-170.664063-170.667969zm0 0" fill="#0e65e5"/><path d="m62.140625 145.949219c-.953125 0-1.925781-.203125-2.855469-.628907-3.417968-1.578124-4.917968-5.632812-3.339844-9.058593 9.121094-19.796875 21.929688-37.347657 38.054688-52.15625 2.78125-2.539063 7.085938-2.375 9.644531.40625 2.554688 2.78125 2.367188 7.101562-.40625 9.648437-14.792969 13.578125-26.53125 29.664063-34.890625 47.820313-1.15625 2.492187-3.621094 3.96875-6.207031 3.96875zm0 0" fill="#fff"/><g fill="#0e65e5"><path d="m204.800781 361.8125c-94.585937 0-171.871093-73.992188-177.179687-167.253906-.191406 3.390625-.3125 6.800781-.3125 10.242187 0 98.027344 79.464844 177.492188 177.492187 177.492188 98.027344 0 177.492188-79.464844 177.492188-177.492188 0-3.441406-.121094-6.851562-.316407-10.242187-5.308593 93.261718-82.589843 167.253906-177.175781 167.253906zm0 0"/><path d="m204.800781 389.121094c-101.632812 0-184.320312-82.6875-184.320312-184.320313 0-3.574219.125-7.113281.324219-10.628906.207031-3.613281 3.195312-6.4375 6.8125-6.4375 3.621093 0 6.609374 2.824219 6.816406 6.4375 5.132812 90.175781 79.964844 160.816406 170.367187 160.816406 90.398438 0 165.230469-70.640625 170.367188-160.816406.203125-3.613281 3.191406-6.4375 6.8125-6.4375 3.617187 0 6.605469 2.824219 6.8125 6.4375.199219 3.515625.324219 7.054687.324219 10.628906.003906 101.632813-82.683594 184.320313-184.316407 184.320313zm-131.632812-75.808594c31.324219 37.941406 78.703125 62.152344 131.632812 62.152344 52.925781 0 100.304688-24.210938 131.632813-62.152344-33.546875 34.207031-80.257813 55.328125-131.632813 55.328125s-98.089843-21.121094-131.632812-55.328125zm0 0"/><path d="m204.800781 245.761719c-.554687 0-1.113281-.066407-1.65625-.207031l-81.917969-20.480469c-1.992187-.492188-3.652343-1.859375-4.527343-3.722657-.871094-1.851562-.859375-4.003906.027343-5.851562l81.921876-170.667969c1.144531-2.414062 3.644531-3.804687 6.265624-3.875 2.667969.046875 5.0625 1.640625 6.132813 4.082031l75.09375 170.667969c.800781 1.8125.773437 3.890625-.085937 5.683594-.855469 1.796875-2.449219 3.128906-4.367188 3.648437l-75.09375 20.480469c-.585938.160157-1.1875.242188-1.792969.242188zm-72.140625-31.902344 72.066406 18.023437 65.726563-17.929687-65.917969-149.824219zm0 0"/><path d="m204.800781 361.8125c-2.394531 0-4.621093-1.25-5.855469-3.3125l-81.917968-136.53125c-1.941406-3.234375-.894532-7.429688 2.339844-9.367188 3.238281-1.949218 7.425781-.894531 9.363281 2.339844l75.808593 126.347656 69.371094-126.121093c1.8125-3.308594 5.976563-4.5 9.269532-2.691407 3.304687 1.8125 4.511718 5.964844 2.691406 9.265626l-75.09375 136.535156c-1.171875 2.144531-3.40625 3.492187-5.851563 3.539062-.039062-.003906-.085937-.003906-.125-.003906zm0 0"/><path d="m204.800781 361.8125c-3.773437 0-6.828125-3.050781-6.828125-6.824219v-293.546875c0-3.773437 3.054688-6.828125 6.828125-6.828125 3.773438 0 6.824219 3.054688 6.824219 6.828125v293.546875c0 3.773438-3.050781 6.824219-6.824219 6.824219zm0 0"/></g><path d="m286.71875 116.054688c-3.773438 0-6.824219-3.054688-6.824219-6.828126v-27.304687c0-3.773437 3.050781-6.828125 6.824219-6.828125s6.828125 3.054688 6.828125 6.828125v27.304687c0 3.773438-3.054687 6.828126-6.828125 6.828126zm0 0" fill="#fff"/><path d="m300.375 102.398438h-27.308594c-3.773437 0-6.828125-3.050782-6.828125-6.824219 0-3.773438 3.054688-6.828125 6.828125-6.828125h27.308594c3.773438 0 6.824219 3.054687 6.824219 6.828125 0 3.773437-3.050781 6.824219-6.824219 6.824219zm0 0" fill="#fff"/></svg>