<svg height="430pt" viewBox="0 -6 430.08 430" width="430pt" xmlns="http://www.w3.org/2000/svg"><path d="m58.714844 239.722656 63.144531-1.4375 22.816406-6.152344 53.191407.605469 26.09375-21.34375 47.179687.367188 43.257813 26.851562 66.820312.613281-3.953125 89.476563-45.039063-.65625-39.457031 16.511719 12.875 16.152344-105.625 49.925781-93.140625-82.992188-52.265625-.652343zm0 0" fill="#d7e9ff"/><path d="m200.019531 417.464844c-1.640625 0-3.265625-.59375-4.539062-1.726563l-91.234375-81.300781-49.71875-.617188c-1.847656-.027343-3.613282-.800781-4.878906-2.148437-1.273438-1.347656-1.941407-3.152344-1.855469-5l4.101562-87.273437c.164063-3.582032 3.078125-6.425782 6.664063-6.507813l62.320312-1.410156 22.011719-5.941407c.609375-.160156 1.253906-.207031 1.863281-.234374l50.710938.582031 24.175781-19.78125c1.234375-1.007813 2.914063-1.605469 4.371094-1.539063l47.179687.367188c1.253906.007812 2.480469.367187 3.546875 1.027344l41.636719 25.847656 64.90625.59375c1.851562.019531 3.617188.785156 4.890625 2.125 1.273437 1.347656 1.949219 3.15625 1.867187 5.003906l-3.953124 89.472656c-.167969 3.691406-3.332032 6.292969-6.917969 6.527344l-43.617188-.632812-29.8125 12.472656 7.246094 9.09375c1.300781 1.625 1.78125 3.765625 1.308594 5.796875-.464844 2.027343-1.847657 3.734375-3.726563 4.628906l-105.625 49.921875c-.933594.441406-1.929687.652344-2.921875.652344zm-138.253906-97.210938 45.199219.566406c1.648437.019532 3.226562.632813 4.453125 1.726563l89.765625 79.992187 93.75-44.3125-7.5-9.414062c-1.335938-1.671875-1.808594-3.875-1.273438-5.945312.53125-2.074219 2.003906-3.78125 3.976563-4.605469l39.453125-16.515625c.867187-.359375 1.875-.550782 2.734375-.527344l38.414062.558594 3.347657-75.792969-59.746094-.542969c-1.253906-.015625-2.480469-.367187-3.539063-1.027344l-41.636719-25.84375-42.792968-.332031-24.1875 19.789063c-1.238282 1.003906-2.699219 1.371094-4.398438 1.539062l-52.246094-.59375-21.898437 5.90625c-.535156.140625-1.082031.21875-1.628906.234375l-56.78125 1.285157zm0 0" fill="#0e65e5"/><path d="m61.445312 327.546875 46.792969-.136719 83.207031 74.191406c5.617188 5.011719 15.765626 6.636719 22.695313 3.625l83.222656-36.195312c6.917969-3.007812 8.371094-9.871094 3.175781-15.402344l-72.144531-76.8125-41.164062 29.0625c-9.25 6.53125-23.011719 5.136719-30.753907-3.128906l3.933594 4.199219c-7.730468-8.261719-7.863281-21.757813-.289062-30.148438l58.289062-64.574219 54.507813-.539062 42.265625 27.09375 54.636718-.128906" fill="#d7e9ff"/><path d="m206.179688 413.585938c-7.046876 0-14.277344-2.425782-19.277344-6.890626l-81.253906-72.453124-44.179688.132812c-.007812 0-.015625 0-.023438 0-3.757812 0-6.8125-3.039062-6.824218-6.808594-.015625-3.765625 3.03125-6.832031 6.804687-6.84375l46.792969-.140625c1.648438-.015625 3.308594.605469 4.5625 1.734375l83.207031 74.191406c3.617188 3.226563 10.964844 4.386719 15.425781 2.457032l83.234376-36.195313c1.199218-.527343 2.03125-1.246093 2.160156-1.878906.132812-.640625-.347656-1.628906-1.246094-2.589844l-68.074219-72.484375-36.3125 25.644532c-9.121093 6.433593-21.238281 7.019531-30.992187 2.308593-1.746094-.0625-3.46875-.78125-4.746094-2.15625l-3.933594-4.199219c-1.347656-1.433593-1.957031-3.300781-1.835937-5.113281-3.757813-10-1.976563-21.90625 5.394531-30.074219l58.285156-64.574218c1.28125-1.417969 3.09375-2.230469 5-2.25l54.507813-.539063c1.273437-.113281 2.632812.359375 3.753906 1.078125l40.574219 26.007813 52.632812-.121094h.011719c3.761719 0 6.820313 3.046875 6.828125 6.8125.007812 3.769531-3.039062 6.835937-6.8125 6.84375l-54.640625.125s-.007813 0-.015625 0c-1.304688 0-2.585938-.375-3.683594-1.082031l-40.546875-25.992188-49.480469.488282-56.28125 62.351562c-4.515624 4.996094-5 12.945312-1.527343 18.628906 5.597656 3.992188 13.980469 4.285156 19.632812.296875l41.160157-29.058593c2.78125-1.957032 6.574218-1.585938 8.914062.898437l72.140625 76.816406c4.015625 4.273438 5.714844 9.625 4.664063 14.683594-1.042969 5.070313-4.71875 9.316406-10.089844 11.648437l-83.230469 36.191407c-3.265625 1.417969-6.945313 2.105469-10.679687 2.105469zm0 0" fill="#0e65e5"/><path d="m233.222656 395.304688-34.542968-29.121094" fill="#d7e9ff"/><path d="m233.210938 402.132812c-1.550782 0-3.109376-.527343-4.390626-1.605468l-34.539062-29.125c-2.882812-2.433594-3.246094-6.738282-.820312-9.621094 2.433593-2.878906 6.734374-3.257812 9.621093-.820312l34.539063 29.128906c2.878906 2.433594 3.246094 6.738281.820312 9.617187-1.355468 1.597657-3.28125 2.425781-5.230468 2.425781zm0 0" fill="#0e65e5"/><path d="m257.921875 383.546875-31.730469-28.488281" fill="#d7e9ff"/><path d="m257.921875 390.375c-1.628906 0-3.261719-.574219-4.5625-1.746094l-31.726563-28.488281c-2.808593-2.519531-3.039062-6.832031-.519531-9.636719 2.519531-2.808594 6.851563-3.035156 9.636719-.523437l31.726562 28.488281c2.808594 2.519531 3.042969 6.832031.523438 9.636719-1.347656 1.5-3.214844 2.269531-5.078125 2.269531zm0 0" fill="#0e65e5"/><path d="m284.894531 371.847656-34.332031-30.773437" fill="#d7e9ff"/><path d="m284.894531 378.671875c-1.628906 0-3.253906-.574219-4.5625-1.746094l-34.324219-30.773437c-2.808593-2.511719-3.039062-6.824219-.519531-9.636719 2.519531-2.800781 6.832031-3.039063 9.636719-.523437l34.328125 30.773437c2.808594 2.515625 3.039063 6.828125.519531 9.640625-1.347656 1.5-3.207031 2.265625-5.078125 2.265625zm0 0" fill="#0e65e5"/><path d="m6.828125 218.492188h54.613281v129.707031h-54.613281zm0 0" fill="#94c1ff"/><path d="m61.441406 355.027344h-54.613281c-3.773437 0-6.828125-3.054688-6.828125-6.828125v-129.707031c0-3.773438 3.054688-6.824219 6.828125-6.824219h54.613281c3.773438 0 6.824219 3.050781 6.824219 6.824219v129.707031c0 3.773437-3.050781 6.828125-6.824219 6.828125zm-47.789062-13.652344h40.960937v-116.054688h-40.960937zm0 0" fill="#0e65e5"/><path d="m40.960938 320.894531c0 3.769531-3.058594 6.824219-6.828126 6.824219-3.769531 0-6.824218-3.054688-6.824218-6.824219s3.054687-6.828125 6.824218-6.828125c3.769532 0 6.828126 3.058594 6.828126 6.828125zm0 0" fill="#94c1ff"/><path d="m34.132812 334.546875c-7.527343 0-13.652343-6.128906-13.652343-13.652344 0-7.527343 6.125-13.65625 13.652343-13.65625 7.527344 0 13.652344 6.128907 13.652344 13.65625 0 7.523438-6.125 13.652344-13.652344 13.652344zm0-13.667969v.015625zm0 0" fill="#0e65e5"/><path d="m338.71875 6.867188h-213.222656c-8.984375 0-16.269532 7.285156-16.269532 16.265624v138.132813c0 8.984375 7.285157 16.269531 16.269532 16.269531h11.039062l-13.65625 34.132813 38.035156-34.132813h177.804688c8.984375 0 16.269531-7.285156 16.269531-16.269531v-138.132813c0-8.980468-7.285156-16.265624-16.269531-16.265624zm0 0" fill="#0e65e5"/><path d="m122.878906 218.492188c-1.367187 0-2.734375-.40625-3.914062-1.234376-2.597656-1.8125-3.597656-5.183593-2.425782-8.125l9.914063-24.773437h-.957031c-12.734375 0-23.09375-10.359375-23.09375-23.09375v-138.132813c0-12.734374 10.359375-23.0937495 23.09375-23.0937495h213.226562c12.734375 0 23.09375 10.3593755 23.09375 23.0937495v138.132813c0 12.734375-10.359375 23.09375-23.09375 23.09375h-175.195312l-36.089844 32.386719c-1.285156 1.160156-2.917969 1.746094-4.558594 1.746094zm2.613282-204.800782c-5.207032 0-9.4375 4.234375-9.4375 9.441406v138.132813c0 5.207031 4.230468 9.441406 9.4375 9.441406h11.042968c2.265625 0 4.378906 1.125 5.652344 3 1.265625 1.875 1.527344 4.261719.683594 6.359375l-2.800782 6.996094 16.28125-14.609375c1.253907-1.125 2.878907-1.746094 4.558594-1.746094h177.808594c5.207031 0 9.441406-4.230469 9.441406-9.4375v-138.136719c0-5.207031-4.234375-9.441406-9.441406-9.441406zm0 0" fill="#0e65e5"/><path d="m368.640625 218.492188h54.613281v129.707031h-54.613281zm0 0" fill="#2a8ee6"/><path d="m423.253906 355.027344h-54.613281c-3.773437 0-6.828125-3.054688-6.828125-6.828125v-129.707031c0-3.773438 3.054688-6.824219 6.828125-6.824219h54.613281c3.773438 0 6.824219 3.050781 6.824219 6.824219v129.707031c0 3.773437-3.050781 6.828125-6.824219 6.828125zm-47.789062-13.652344h40.960937v-116.054688h-40.960937zm0 0" fill="#0e65e5"/><path d="m402.773438 320.894531c0 3.769531-3.054688 6.824219-6.828126 6.824219-3.769531 0-6.824218-3.054688-6.824218-6.824219s3.054687-6.828125 6.824218-6.828125c3.773438 0 6.828126 3.058594 6.828126 6.828125zm0 0" fill="#94c1ff"/><path d="m395.945312 334.546875c-7.523437 0-13.652343-6.128906-13.652343-13.652344 0-7.527343 6.128906-13.65625 13.652343-13.65625 7.527344 0 13.65625 6.128907 13.65625 13.65625 0 7.523438-6.128906 13.652344-13.65625 13.652344zm0-13.667969v.015625zm0 0" fill="#0e65e5"/><path d="m325.066406 6.867188h-213.226562c-8.984375 0-16.265625 7.285156-16.265625 16.265624v138.132813c0 8.984375 7.28125 16.269531 16.265625 16.269531h11.039062v34.132813l24.382813-34.132813h177.804687c8.984375 0 16.265625-7.285156 16.265625-16.269531v-138.132813c0-8.980468-7.28125-16.265624-16.265625-16.265624zm0 0" fill="#94c1ff"/><path d="m122.878906 218.492188c-.691406 0-1.398437-.105469-2.078125-.324219-2.828125-.90625-4.746093-3.535157-4.746093-6.5v-27.308594h-4.214844c-12.734375 0-23.09375-10.359375-23.09375-23.09375v-138.132813c0-12.734374 10.359375-23.0937495 23.09375-23.0937495h213.226562c12.734375 0 23.09375 10.3593755 23.09375 23.0937495v138.132813c0 12.734375-10.359375 23.09375-23.09375 23.09375h-174.292968l-22.339844 31.273437c-1.308594 1.828126-3.394532 2.859376-5.554688 2.859376zm-11.039062-204.800782c-5.207032 0-9.441406 4.234375-9.441406 9.441406v138.132813c0 5.207031 4.234374 9.441406 9.441406 9.441406h11.039062c3.773438 0 6.828125 3.054688 6.828125 6.828125v12.832032l12-16.800782c1.277344-1.792968 3.347657-2.859375 5.550781-2.859375h177.808594c5.207032 0 9.441406-4.234375 9.441406-9.441406v-138.132813c0-5.207031-4.234374-9.441406-9.441406-9.441406zm0 0" fill="#0e65e5"/><path d="m273.066406 88.785156c0 30.164063-24.449218 54.613282-54.613281 54.613282-30.160156 0-54.613281-24.449219-54.613281-54.613282 0-30.160156 24.453125-54.613281 54.613281-54.613281 30.164063 0 54.613281 24.453125 54.613281 54.613281zm0 0" fill="#2a8ee6"/><g fill="#0e65e5"><path d="m218.453125 150.226562c-33.878906 0-61.441406-27.558593-61.441406-61.441406 0-33.878906 27.5625-61.4375 61.441406-61.4375 33.882813 0 61.441406 27.558594 61.441406 61.4375 0 33.882813-27.558593 61.441406-61.441406 61.441406zm0-109.226562c-26.347656 0-47.785156 21.4375-47.785156 47.785156s21.4375 47.789063 47.785156 47.789063 47.785156-21.441407 47.785156-47.789063-21.4375-47.785156-47.785156-47.785156zm0 0"/><path d="m198.773438 56.945312c0-.566406.375-.9375.933593-.9375h23.746094c13.515625 0 19.894531 6.753907 19.894531 16.984376 0 7.226562-3.375 11.355468-7.414062 13.515624v.183594c3.945312 1.507813 8.546875 6.574219 8.546875 14.359375 0 12.675781-7.980469 18.773438-21.96875 18.773438h-22.804688c-.558593 0-.933593-.371094-.933593-.9375zm24.402343 25.621094c5.625 0 9.097657-3.378906 9.097657-8.355468 0-5.066407-3.472657-8.445313-9.097657-8.445313h-12.769531c-.378906 0-.566406.1875-.566406.558594v15.683593c0 .371094.1875.558594.566406.558594zm-12.769531 27.5h13.328125c6.199219 0 9.664063-3.566406 9.664063-8.921875 0-5.25-3.464844-8.816406-9.664063-8.816406h-13.328125c-.378906 0-.566406.183594-.566406.566406v16.605469c0 .378906.1875.566406.566406.566406zm0 0"/><path d="m215.039062 64.894531c-3.773437 0-6.824218-3.054687-6.824218-6.828125v-6.828125c0-3.773437 3.050781-6.824219 6.824218-6.824219 3.773438 0 6.828126 3.050782 6.828126 6.824219v6.828125c0 3.773438-3.054688 6.828125-6.828126 6.828125zm0 0"/><path d="m215.039062 133.160156c-3.773437 0-6.824218-3.054687-6.824218-6.828125v-6.824219c0-3.773437 3.050781-6.828124 6.824218-6.828124 3.773438 0 6.828126 3.054687 6.828126 6.828124v6.824219c0 3.773438-3.054688 6.828125-6.828126 6.828125zm0 0"/></g><path d="m334.507812 68.308594c-3.773437 0-6.828124-3.054688-6.828124-6.828125v-27.308594c0-3.773437 3.054687-6.824219 6.828124-6.824219 3.773438 0 6.824219 3.050782 6.824219 6.824219v27.308594c0 3.773437-3.050781 6.828125-6.824219 6.828125zm0 0" fill="#fff"/><path d="m348.160156 54.652344h-27.308594c-3.773437 0-6.824218-3.050782-6.824218-6.824219s3.050781-6.828125 6.824218-6.828125h27.308594c3.773438 0 6.828125 3.054688 6.828125 6.828125s-3.054687 6.824219-6.828125 6.824219zm0 0" fill="#fff"/><path d="m116.054688 61.480469c-3.773438 0-6.828126-3.054688-6.828126-6.828125v-24.027344c0-5.570312 4.53125-10.105469 10.105469-10.105469h24.027344c3.773437 0 6.828125 3.054688 6.828125 6.828125 0 3.773438-3.054688 6.824219-6.828125 6.824219h-20.480469v20.480469c0 3.773437-3.050781 6.828125-6.824218 6.828125zm0 0" fill="#fff"/></svg>