<svg xmlns="http://www.w3.org/2000/svg" id="Layer_1" x="0" y="0" version="1.1" viewBox="0 0 128 128" xml:space="preserve"><path fill="#fff" d="M114,46h-10V32H31c-3.9,0-7,3.1-7,7v85h90c5.5,0,10-4.5,10-10V56C124,50.5,119.5,46,114,46z"></path><rect width="60" height="57" x="4" y="67" fill="#fff"></rect><rect width="30" height="57" x="34" y="67" fill="#71c2ff"></rect><path fill="#444b54" d="M124,66c-1.7,0-3-1.3-3-3v-7c0-3.9-3.1-7-7-7H31c-5.5,0-10-4.5-10-10s4.5-10,10-10h73c1.7,0,3,1.3,3,3 s-1.3,3-3,3H31c-2.2,0-4,1.8-4,4s1.8,4,4,4h83c7.2,0,13,5.8,13,13v7C127,64.7,125.7,66,124,66z"></path><path fill="#444b54" d="M114,127H80c-1.7,0-3-1.3-3-3s1.3-3,3-3h34c3.9,0,7-3.1,7-7v-7c0-1.7,1.3-3,3-3s3,1.3,3,3v7 C127,121.2,121.2,127,114,127z"></path><path fill="#444b54" d="M64,64H27c-1.7,0-3,1.3-3,3s1.3,3,3,3h34v13H27c-1.7,0-3,1.3-3,3s1.3,3,3,3h34v13H27c-1.7,0-3,1.3-3,3 s1.3,3,3,3h34v13H27c-1.7,0-3,1.3-3,3s1.3,3,3,3h37c1.7,0,3-1.3,3-3V67C67,65.3,65.7,64,64,64z"></path><path fill="#444b54" d="M14,70c1.7,0,3-1.3,3-3s-1.3-3-3-3H4c-1.7,0-3,1.3-3,3v57c0,1.7,1.3,3,3,3h10c1.7,0,3-1.3,3-3s-1.3-3-3-3H7 v-13h7c1.7,0,3-1.3,3-3s-1.3-3-3-3H7V89h7c1.7,0,3-1.3,3-3s-1.3-3-3-3H7V70H14z"></path><g><path fill="#444b54" d="M124,99h-19.5C97.1,99,91,92.9,91,85.5S97.1,72,104.5,72H124c1.7,0,3,1.3,3,3v21C127,97.7,125.7,99,124,99z M104.5,78c-4.1,0-7.5,3.4-7.5,7.5s3.4,7.5,7.5,7.5H121V78H104.5z"></path></g></svg>