<svg xmlns="http://www.w3.org/2000/svg" viewBox="0 0 80 80"><path fill="#8bb7f0" d="M39.5,74.5c-2.224,0-4.2-1.495-4.807-3.636L34.59,70.5H2c-0.827,0-1.5-0.673-1.5-1.5V55.5h78V69 c0,0.827-0.673,1.5-1.5,1.5H44.41l-0.103,0.364C43.7,73.005,41.724,74.5,39.5,74.5z"></path><path fill="#4e7ab5" d="M78,56v13c0,0.551-0.449,1-1,1H44.788h-0.756l-0.206,0.727C43.28,72.654,41.501,74,39.5,74 s-3.78-1.346-4.325-3.273L34.969,70h-0.756H2c-0.551,0-1-0.449-1-1V56H78 M79,55H0v14c0,1.105,0.895,2,2,2h32.212 c0.654,2.307,2.771,4,5.288,4s4.634-1.693,5.288-4H77c1.105,0,2-0.895,2-2V55L79,55z"></path><path fill="#fff" d="M39.472,71.5c-0.25-2.247-2.16-4-4.472-4H0.5v-61H32c4.136,0,7.5,3.364,7.5,7.5v57.5H39.472z"></path><path fill="#788b9c" d="M32,7c3.86,0,7,3.14,7,7v55.003C38.087,67.788,36.634,67,35,67H1V7H32 M32,6H0v62h35 c2.209,0,4,1.791,4,4l0,0h1V14C40,9.582,36.418,6,32,6L32,6z"></path><path fill="#e1ebf2" d="M39.5,71.5V14c0-4.136,3.364-7.5,7.5-7.5h31.5v61H44c-2.312,0-4.223,1.753-4.472,4H39.5z"></path><path fill="#788b9c" d="M78,7v60H44c-1.634,0-3.087,0.788-4,2.003V14c0-3.86,3.14-7,7-7H78 M79,6H47c-4.418,0-8,3.582-8,8 v58h1l0,0c0-2.209,1.791-4,4-4h35V6L79,6z"></path><path fill="#66798f" d="M9 19H14V20H9zM18 19H31V20H18zM9 25H14V26H9zM18 25H28V26H18zM9 31H14V32H9zM18 31H31V32H18zM9 37H14V38H9zM18 37H31V38H18zM9 52H14V53H9zM18 52H31V53H18zM18 46H31V47H18z"></path><path fill="#f78f8f" d="M53,30c0-2.25,2.925-4,6-4c3.482,0,6.1,0.894,8.048,2v-4.25c-1.448-0.753-3.632-1.62-6.565-1.75 l-3.043,0.077c-2.542,0.233-4.583,1.071-6.125,2.506C49.772,26.017,49,27.757,49,29.796c0,9.12,16,7.954,16,12.954 c0,2.167-3.607,3.204-5.954,3.204c-4.805,0-9.238-1.678-10.046-2.288v4.538c2.43,1.183,5.62,1.782,8.44,1.795l3.042-0.117 c2.735-0.286,4.84-1.087,6.313-2.405C68.262,46.16,69,44.421,69,42.262C69.002,33.647,53,34.837,53,30z"></path><path fill="#f78f8f" d="M57 18H61V24H57zM57 48H61V54H57z"></path></svg>