<svg id="Layer_1" enable-background="new 0 0 512 512" height="512" viewBox="0 0 512 512" width="512" xmlns="http://www.w3.org/2000/svg"><path d="m404 38v436c0 16.57-13.43 30-30 30h-236c-16.57 0-30-13.43-30-30v-436c0-16.57 13.43-30 30-30h236c16.57 0 30 13.43 30 30z" fill="#e8f3ff"/><path d="m404 420v54c0 16.57-13.43 30-30 30h-236c-16.57 0-30-13.43-30-30v-54z" fill="#a2d0ff"/><path d="m404 38v382h-49.18c3.67-9.31 5.68-19.44 5.68-30.05v-311.24c0-29.22-15.51-56.05-40.42-70.71h53.92c16.57 0 30 13.43 30 30z" fill="#d1e7ff"/><path d="m404 420v54c0 16.57-13.43 30-30 30h-236c-14.977 0-30-11.198-30-32h170.45c34.7 0 64.38-21.55 76.37-52z" fill="#8bc4ff"/><circle cx="256" cy="462" fill="#e8f3ff" r="19"/><path d="m275 462c0 20.139-27.443 26.382-36.13 8.21 16.066 7.745 33.102-9.234 25.34-25.34 6.38 3.05 10.79 9.58 10.79 17.13z" fill="#d1e7ff"/><g fill="#2e58ff"><path d="m108 152.75c10.504 0 10.762-16.75 0-16.75-10.815 0-10.461 16.75 0 16.75z"/><path d="m374 0h-236c-20.953 0-38 17.047-38 38v75c0 4.418 3.582 8 8 8s8-3.582 8-8v-75c0-12.131 9.869-22 22-22h236c12.131 0 22 9.869 22 22v436c0 12.131-9.869 22-22 22h-236c-12.131 0-22-9.869-22-22v-46h254c4.418 0 8-3.582 8-8s-3.582-8-8-8h-254v-233.875c0-4.418-3.582-8-8-8s-8 3.582-8 8v295.875c0 20.953 17.047 38 38 38h236c20.953 0 38-17.047 38-38v-436c0-20.953-17.047-38-38-38z"/><path d="m229 462c0 14.888 12.112 27 27 27s27-12.112 27-27-12.112-27-27-27-27 12.112-27 27zm38 0c0 6.065-4.935 11-11 11s-11-4.935-11-11 4.935-11 11-11 11 4.935 11 11z"/><path d="m279 34h-46c-4.418 0-8 3.582-8 8s3.582 8 8 8h46c4.418 0 8-3.582 8-8s-3.582-8-8-8z"/><path d="m190.343 182.343-16 16c-3.124 3.125-3.124 8.189 0 11.314 3.126 3.124 8.189 3.123 11.314 0l16-16c3.124-3.125 3.124-8.189 0-11.314-3.125-3.123-8.189-3.123-11.314 0z"/><path d="m283.843 159.843-4.75 4.75c-5.056 5.058-1.405 13.657 5.657 13.657 4.108 0 5.673-2.358 10.407-7.093 3.124-3.125 3.124-8.189 0-11.314-3.125-3.123-8.189-3.123-11.314 0z"/><path d="m189.343 265.657c3.126 3.124 8.189 3.123 11.314 0l68-68c3.124-3.125 3.124-8.189 0-11.314-3.125-3.123-8.189-3.123-11.314 0l-68 68c-3.124 3.125-3.124 8.189 0 11.314z"/><path d="m311.843 210.843-33.5 33.5c-3.124 3.125-3.124 8.189 0 11.314 3.126 3.124 8.189 3.123 11.314 0l33.5-33.5c3.124-3.125 3.124-8.189 0-11.314-3.125-3.123-8.189-3.123-11.314 0z"/><path d="m282 323c2.048 0 4.095-.781 5.657-2.343l52-52c3.124-3.125 3.124-8.189 0-11.314-3.125-3.123-8.189-3.123-11.314 0l-52 52c-5.056 5.058-1.405 13.657 5.657 13.657z"/></g></svg>