<svg xmlns="http://www.w3.org/2000/svg" viewBox="0 0 80 80"><path fill="#e1ebf2" d="M60.5 28.5L5.5 28.5 5.5 18.5 60.5 18.5 60.5 9.091 77.234 23.5 60.5 37.909z"></path><path fill="#a3b7cc" d="M61,10.181L76.467,23.5L61,36.819V29v-1h-1H6v-9h54h1v-1V10.181 M60,8v10H5v11h55v10l18-15.5L60,8 L60,8z"></path><path fill="#e1ebf2" d="M2.766 56.5L19.5 42.091 19.5 51.5 74.5 51.5 74.5 61.5 19.5 61.5 19.5 70.909z"></path><path fill="#a3b7cc" d="M19,43.181V51v1h1h54v9H20h-1v1v7.819L3.533,56.5L19,43.181 M20,41L2,56.5L20,72V62h55V51H20V41 L20,41z"></path><g><path fill="#e1ebf2" d="M52 29V18H34.627c-4.991 1.811-7.936 5.612-8.511 11H52zM26 51v11h18.617c4.465-1.848 8.467-5.786 9.236-11H26z"></path></g><g><path fill="#99c99e" d="M38.5,68.5v-7.021c-1.896-0.091-8.116-0.458-10.683-1.464L27.5,59.89v-8.969l0.698,0.301 C30.221,52.094,33.335,52.5,38,52.5c2.776,0,5.5-1.72,5.5-3.473c0-2.048-2.619-3.501-5.652-5.183 C33.238,41.288,27.5,38.106,27.5,31c0-6.944,3.902-11.346,11-12.434V11.5h3v7.034c3.05,0.242,6.904,0.983,8.743,2.007l0.257,0.143 v9.204l-0.759-0.46C46.974,27.75,43.077,27.5,41,27.5c-3.028,0-4.5,1.145-4.5,3.5c0,2.444,2.698,3.825,5.822,5.425 c4.535,2.321,10.178,5.21,10.178,12.768c0,6.297-5.521,11.083-11,12.221V68.5H38.5z"></path><path fill="#5e9c76" d="M41,12v7c3.359,0.215,7.283,1.022,9,1.978V29c-2.467-1.495-6-2-9-2c-3.893,0-5,1.889-5,4 c0,6.549,16,5.691,16,18.192C52,55.616,46.123,60.108,41,61v7h-2v-7c-2.507-0.099-8.592-0.507-11-1.451v-7.868 C30.229,52.642,33.583,53,38,53c2.974,0,6-1.843,6-3.972C44,43.341,28,42.585,28,31c0-10,8.047-11.61,11-12v-7H41 M42,11h-1h-2h-1 v1v6.141C30.897,19.379,27,23.917,27,31c0,7.401,5.881,10.662,10.606,13.282C40.5,45.888,43,47.274,43,49.028 C43,50.5,40.477,52,38,52c-4.595,0-7.647-0.393-9.604-1.237L27,50.16v1.52v7.868v0.682l0.635,0.249 c2.448,0.96,8.044,1.35,10.365,1.474V68v1h1h2h1v-1v-6.186c5.543-1.325,11-6.222,11-12.622c0-7.864-5.795-10.83-10.451-13.213 C39.109,34.218,37,33.035,37,31c0-1.288,0.415-3,4-3c3.446,0,6.537,0.676,8.482,1.855L51,30.776V29v-8.022V20.39l-0.514-0.286 c-1.807-1.006-5.46-1.746-8.486-2.028V12V11L42,11z"></path></g></svg>