<svg xmlns="http://www.w3.org/2000/svg" viewBox="0 0 30 30"><path fill="#dcd5f2" d="M3,26.5c-0.8,0-1.5-0.7-1.5-1.5V5c0-0.8,0.7-1.5,1.5-1.5h24c0.8,0,1.5,0.7,1.5,1.5v20 c0,0.8-0.7,1.5-1.5,1.5H3z"></path><path fill="#8b75a1" d="M27,4c0.6,0,1,0.4,1,1v20c0,0.6-0.4,1-1,1H3c-0.6,0-1-0.4-1-1V5c0-0.6,0.4-1,1-1H27 M27,3H3 C1.9,3,1,3.9,1,5v20c0,1.1,0.9,2,2,2h24c1.1,0,2-0.9,2-2V5C29,3.9,28.1,3,27,3L27,3z"></path><path fill="#b0c1d4" d="M17 8.5A6.5 6.5 0 1 0 17 21.5A6.5 6.5 0 1 0 17 8.5Z"></path><path fill="#66798f" d="M17,9c3.3,0,6,2.7,6,6s-2.7,6-6,6s-6-2.7-6-6S13.7,9,17,9 M17,8c-3.9,0-7,3.1-7,7s3.1,7,7,7 s7-3.1,7-7S20.9,8,17,8L17,8z"></path><path fill="#e1ebf2" d="M17 11.5A3.5 3.5 0 1 0 17 18.5A3.5 3.5 0 1 0 17 11.5Z"></path><path fill="#66798f" d="M17 12c1.7 0 3 1.3 3 3s-1.3 3-3 3-3-1.3-3-3S15.3 12 17 12M17 11c-2.2 0-4 1.8-4 4s1.8 4 4 4 4-1.8 4-4S19.2 11 17 11L17 11zM5.5 9C4.7 9 4 9.7 4 10.5v9C4 20.3 4.7 21 5.5 21S7 20.3 7 19.5v-9C7 9.7 6.3 9 5.5 9L5.5 9z"></path><path fill="#e1ebf2" d="M5.5,20L5.5,20C5.2,20,5,19.8,5,19.5V15h1v4.5C6,19.8,5.8,20,5.5,20z"></path><path fill="#fff" d="M5.5,10L5.5,10C5.8,10,6,10.2,6,10.5V15H5v-4.5C5,10.2,5.2,10,5.5,10z"></path><path fill="#66798f" d="M14.3 8.9H15.3V10.4H14.3z" transform="rotate(-22.49 14.802 9.689)"></path><path fill="#66798f" d="M21.6 12.3H23.1V13.3H21.6z" transform="rotate(-22.508 22.313 12.8)"></path><path fill="#66798f" d="M10.9 16.7H12.4V17.7H10.9z" transform="rotate(-22.508 11.688 17.2)"></path><path fill="#66798f" d="M18.5 9.2H20V10.2H18.5z" transform="rotate(-67.492 19.2 9.688)"></path><path fill="#66798f" d="M14.1 19.8H15.6V20.8H14.1z" transform="rotate(-67.492 14.8 20.313)"></path><path fill="#66798f" d="M11.2 12.1H12.2V13.6H11.2z" transform="rotate(-67.51 11.688 12.8)"></path><path fill="#8b75a1" d="M3 26H7V28H3zM27 8H29V11H27z"></path><g><path fill="#bae0bd" d="M23 16.5A6.5 6.5 0 1 0 23 29.5A6.5 6.5 0 1 0 23 16.5Z"></path><path fill="#5e9c76" d="M23,17c3.3,0,6,2.7,6,6s-2.7,6-6,6s-6-2.7-6-6S19.7,17,23,17 M23,16c-3.9,0-7,3.1-7,7s3.1,7,7,7 s7-3.1,7-7S26.9,16,23,16L23,16z"></path></g><path fill="#fff" d="M21.9 26.6L19 23.7 20.5 22.3 21.9 23.8 26 19.6 27.5 21z"></path></svg>