<svg id="Layer_1" enable-background="new 0 0 512 512" height="512" viewBox="0 0 512 512" width="512" xmlns="http://www.w3.org/2000/svg"><path d="m480 290.099h-2c0-8.455 0-145.707 0-137 0-13.255-10.745-24-24-24-76.567 0-73-.067-73 .12-.112.064-58.952 34.029-57.913 33.43-4.943 2.854-11.033 2.858-15.98.01l-58.037-33.4c-.418-.238 3.859-.16-38.07-.16v38c0 8.837-7.163 16-16 16h-100c-8.837 0-16-7.163-16-16v-38h-47c-13.255 0-24 10.745-24 24v320c0 13.255 10.745 24 24 24h422c13.255 0 24-10.745 24-24v-83h2c13.255 0 24-10.745 24-24v-52c0-13.255-10.745-24-24-24z" fill="#a2d0ff"/><path d="m478 153.099v103.43l-20.1-16.72c-12.21-10.15-27.6-15.71-43.48-15.71h-340.98c-30.43 0-57.16-20.22-65.44-49.5v-21.5c0-13.25 10.75-24 24-24h47v54h132v-54h38c0 .168 65.919 38.261 66.1 38.17 0-.185 65.9-37.848 65.9-38.17h73c13.25 0 24 10.75 24 24z" fill="#b9dcff"/><path d="m315.09 14.949c-.139-.077 3.06-1.869-66.09 38.06v76.09c0 .168 65.919 38.261 66.1 38.17 0-.185 65.9-37.848 65.9-38.17 0-9.213 0-67.051 0-76.09z" fill="#b9dcff"/><path d="m249.07 129.259 65.93-37.96 65.93 37.96c-66.59 38.439-65.83 37.91-65.83 38.01-.153.076 3.137 1.918-66.03-38.01z" fill="#a2d0ff"/><path d="m381.1 53.119c0 79.533.039 75.898-.07 75.96-70.843-40.792-65.704-37.966-66.03-37.78 0-79.957-.05-76.117.09-76.35 69.201 39.96 65.91 38.23 66.01 38.17z" fill="#a2d0ff"/><path d="m145.09 63.949c-.06.101 4.935-2.952-66.09 38.06v81.09h132c0-26.121 0-56.842 0-81.09z" fill="#b9dcff"/><path d="m145.09 63.949c-.14.233-.09-3.497-.09 76.35l-66 38v4.8h132c0-26.121 0-56.842 0-81.09z" fill="#a2d0ff"/><path d="m504 314.099v52c0 13.25-10.75 24-24 24-4.672 0-77.715 0-82 0-13.25 0-24-10.75-24-24v-52c0-13.25 10.75-24 24-24 6.298 0 83.441 0 82 0 13.25 0 24 10.75 24 24z" fill="#a2d0ff"/><path d="m501.325 298.999-10.07 9.93c-3.78 3.73-8.91 5.77-14.22 5.64-46.183-1.068-37.207-.86-50.53-1.17-8.451 0-15.032 4.545-18.23 11.35-3.21 6.92-10.15 11.35-17.78 11.35h-13.82v-22c0-13.25 10.75-24 24-24h82c7.637 0 14.364 3.589 18.65 8.9z" fill="#b9dcff"/><path d="m380.93 129.259c.429-.245-4.679-.16 73.07-.16 13.25 0 24 10.75 24 24v54c0-13.25-10.75-24-24-24h-243c0-16.272 0-38.39 0-54 41.95 0 37.657-.076 38.07.16 69.081 39.879 65.874 38.088 66.03 38.01 0-.1-.751.423 65.83-38.01z" fill="#8bc4ff"/><path d="m478 419.099v54c0 13.25-10.75 24-24 24h-422c-13.25 0-24-10.75-24-24v-58.67c14.03 19.27 36.43 30.67 60.27 30.67h352.02c18.08 0 35.54-6.57 49.14-18.49z" fill="#8bc4ff"/><g fill="#2e58ff"><path d="m486 282.671c0-29.595 0-101.971 0-129.572 0-17.645-14.355-32-32-32h-65v-68.093c0-2.858-1.524-5.499-4-6.928l-66-38.105c-2.475-1.429-5.525-1.429-8 0l-66 38.105c-2.475 1.429-4 4.07-4 6.928v68.093h-22v-19.093c0-2.858-1.525-5.499-4-6.928l-66-38.105c-2.476-1.429-5.524-1.429-8 0l-66 38.105c-2.475 1.429-4 4.07-4 6.928v19.093h-39c-17.645 0-32 14.355-32 32v111.667c0 4.418 3.582 8 8 8s8-3.582 8-8v-111.667c0-8.822 7.178-16 16-16h39v38h-13c-4.418 0-8 3.582-8 8s3.582 8 8 8h396c8.822 0 16 7.178 16 16v75h-72c-17.645 0-32 14.355-32 32v52c0 17.645 14.355 32 32 32h82c17.645 0 32-14.355 32-32v-52c0-15.594-11.215-28.61-26-31.428zm-154.966-191.374 41.966-24.162v48.325zm-8.034-13.837v-48.703l42.236 24.385zm-16 0-42.236-24.318 42.236-24.385zm-8.034 13.837-41.966 24.163v-48.325zm8.034 13.838v48.33l-41.913-24.198zm16 0 41.913 24.132-41.913 24.198zm-76.347 31.964c69.607 40.187 64.795 37.595 66.526 38h-94.179v-38zm-159.653-20.964 41.967 24.163-41.967 24.162zm116 48.325-41.967-24.163 41.967-24.162zm-50-38v-48.703l42.236 24.385zm-16 0-42.236-24.318 42.236-24.385zm0 27.675v20.964h-36.412zm16 0 36.412 20.964h-36.412zm301 20.964c-157.594 0-137.292.473-135-.85l64.347-37.15h70.653c8.822 0 16 7.178 16 16v26.305c-4.711-2.732-10.174-4.305-16-4.305zm42 191c0 8.822-7.178 16-16 16h-82c-8.822 0-16-7.178-16-16v-52c0-8.822 7.178-16 16-16h82c8.822 0 16 7.178 16 16z"/><path d="m416 325.099c-8.271 0-15 6.729-15 15s6.729 15 15 15 15-6.729 15-15-6.729-15-15-15z"/><path d="m88 447.099h19c4.418 0 8-3.582 8-8s-3.582-8-8-8h-19c-4.418 0-8 3.582-8 8s3.582 8 8 8z"/><path d="m145.857 447.099h38.857c4.418 0 8-3.582 8-8s-3.582-8-8-8h-38.857c-4.418 0-8 3.582-8 8s3.582 8 8 8z"/><path d="m301.286 447.099h38.857c4.418 0 8-3.582 8-8s-3.582-8-8-8h-38.857c-4.418 0-8 3.582-8 8s3.582 8 8 8z"/><path d="m223.572 447.099h38.857c4.418 0 8-3.582 8-8s-3.582-8-8-8h-38.857c-4.418 0-8 3.582-8 8s3.581 8 8 8z"/><path d="m398 447.099c4.418 0 8-3.582 8-8s-3.582-8-8-8h-19c-4.418 0-8 3.582-8 8s3.582 8 8 8z"/><path d="m88 249.099h19c4.418 0 8-3.582 8-8s-3.582-8-8-8h-19c-4.418 0-8 3.582-8 8s3.582 8 8 8z"/><path d="m301.286 249.099h38.857c4.418 0 8-3.582 8-8s-3.582-8-8-8h-38.857c-4.418 0-8 3.582-8 8s3.582 8 8 8z"/><path d="m145.857 249.099h38.857c4.418 0 8-3.582 8-8s-3.582-8-8-8h-38.857c-4.418 0-8 3.582-8 8s3.582 8 8 8z"/><path d="m223.572 249.099h38.857c4.418 0 8-3.582 8-8s-3.582-8-8-8h-38.857c-4.418 0-8 3.582-8 8s3.581 8 8 8z"/><path d="m398 249.099c4.418 0 8-3.582 8-8s-3.582-8-8-8h-19c-4.418 0-8 3.582-8 8s3.582 8 8 8z"/><path d="m8 301.099c4.418 0 8-3.582 8-8v-1.333c0-4.418-3.582-8-8-8s-8 3.582-8 8v1.333c0 4.418 3.582 8 8 8z"/><path d="m478 420.099c-4.418 0-8 3.582-8 8v45c0 8.822-7.178 16-16 16h-422c-8.822 0-16-7.178-16-16v-147.5c0-4.418-3.582-8-8-8s-8 3.582-8 8v147.5c0 17.645 14.355 32 32 32h422c17.645 0 32-14.355 32-32v-45c0-4.418-3.582-8-8-8z"/></g></svg>